<?xml version="1.0" standalone="no"?><!DOCTYPE svg PUBLIC "-//W3C//DTD SVG 1.1//EN" "http://www.w3.org/Graphics/SVG/1.1/DTD/svg11.dtd"><svg t="1668587513915" class="icon" viewBox="0 0 1030 1024" version="1.1" xmlns="http://www.w3.org/2000/svg" p-id="1257" xmlns:xlink="http://www.w3.org/1999/xlink" width="201.171875" height="200"><path d="M139.636364 442.181818c38.4 0 69.818182 31.418182 69.818181 69.818182s-31.418182 69.818182-69.818181 69.818182-69.818182-31.418182-69.818182-69.818182 31.185455-69.818182 69.818182-69.818182m0-69.818182c-77.032727 0-139.636364 62.603636-139.636364 139.636364s62.603636 139.636364 139.636364 139.636364 139.636364-62.603636 139.636363-139.636364-62.603636-139.636364-139.636363-139.636364zM890.414545 69.818182c38.4 0 69.818182 31.418182 69.818182 69.818182s-31.418182 69.818182-69.818182 69.818181-69.818182-31.418182-69.818181-69.818181 31.418182-69.818182 69.818181-69.818182m0-69.818182c-77.032727 0-139.636364 62.603636-139.636363 139.636364s62.603636 139.636364 139.636363 139.636363 139.636364-62.603636 139.636364-139.636363-62.370909-139.636364-139.636364-139.636364zM890.414545 814.545455c38.4 0 69.818182 31.418182 69.818182 69.818181s-31.418182 69.818182-69.818182 69.818182-69.818182-31.418182-69.818181-69.818182 31.418182-69.818182 69.818181-69.818181m0-69.818182c-77.032727 0-139.636364 62.603636-139.636363 139.636363s62.603636 139.636364 139.636363 139.636364 139.636364-62.603636 139.636364-139.636364-62.370909-139.636364-139.636364-139.636363z" p-id="1258" fill="#1296db"></path><path d="M257.163636 504.552727c-12.567273 0-24.901818-6.981818-31.185454-19.083636-8.843636-17.221818-2.094545-38.167273 15.127273-47.010909L773.585455 165.469091c17.221818-8.843636 38.167273-2.094545 47.010909 15.127273 8.843636 17.221818 2.094545 38.167273-15.127273 47.010909L273.221818 500.596364c-5.12 2.56-10.705455 3.956364-16.058182 3.956363zM779.869091 883.2c-5.12 0-10.24-1.163636-15.127273-3.490909L214.109091 612.770909a34.513455 34.513455 0 0 1-16.058182-46.545454c8.378182-17.454545 29.323636-24.669091 46.545455-16.29091L795.229091 816.872727c17.454545 8.378182 24.669091 29.323636 16.290909 46.545455-6.050909 12.567273-18.618182 19.781818-31.650909 19.781818z" p-id="1259" fill="#1296db"></path></svg>