<?xml version="1.0" standalone="no"?><!DOCTYPE svg PUBLIC "-//W3C//DTD SVG 1.1//EN" "http://www.w3.org/Graphics/SVG/1.1/DTD/svg11.dtd"><svg t="1668570240074" class="icon" viewBox="0 0 1024 1024" version="1.1" xmlns="http://www.w3.org/2000/svg" p-id="1271" xmlns:xlink="http://www.w3.org/1999/xlink" width="200" height="200"><path d="M866.3 723.2c19.6 0 35.5-15.9 35.5-35.5 0-0.7 0.1-1 0.1-1.4V345.1c0-0.4-0.1-0.7-0.1-1.4 0-19.6-15.9-35.5-35.5-35.5-6 0-11.6 1.5-16.5 4.1h-0.2l-108.3 58.5v-87c0-49.3-39.9-89.2-89.2-89.2h-446c-49.3 0-89.2 39.9-89.2 89.2v446c0 49.3 39.9 89.2 89.2 89.2h446c49.3 0 89.2-39.9 89.2-89.2v-69.3l108.9 58.8c4.9 2.3 10.3 3.9 16.1 3.9z" p-id="1272"></path></svg>